<svg width="408.2000244140625" height="213.7252609690949" viewBox="0 0 350 183.2529075581462" class="looka-1j8o68f" xmlns="http://www.w3.org/2000/svg"><defs id="SvgjsDefs1155"></defs><g id="SvgjsG1156" featurekey="7KWit6-0" transform="matrix(5.843316218754017,0,0,5.843316218754017,104.88313366735306,-15.742480445077245)" fill="#111111"><g xmlns="http://www.w3.org/2000/svg"><path d="M11.842,8.863c-0.853,0-5.144,0.04-5.921,0.814C5.787,9.812,5.709,9.999,5.709,10.19v5.966   c0,0.189,0.073,0.369,0.212,0.512c0.457,0.456,2.375,0.697,5.671,0.722v0.345l-2.609,0.38c-0.219,0.031-0.37,0.234-0.338,0.453   c0.031,0.219,0.237,0.37,0.453,0.338l2.895-0.421l2.895,0.421c0.02,0.003,0.039,0.005,0.059,0.005c0.195,0,0.366-0.144,0.395-0.343   c0.032-0.219-0.119-0.422-0.338-0.453l-2.609-0.38v-0.342c4.952-0.017,5.475-0.531,5.671-0.726   c0.137-0.137,0.212-0.318,0.212-0.512v-5.966c0-0.193-0.075-0.375-0.212-0.512C17.258,8.873,12.063,8.863,11.842,8.863z    M12.142,16.593c-3.341,0-5.375-0.248-5.632-0.438l-0.023-5.912c0.287-0.28,2.508-0.58,5.355-0.58c2.313,0,5.288,0.254,5.633,0.525   l0.022,5.911C17.307,16.284,15.963,16.593,12.142,16.593z"></path><path d="M5.142,12.167c-3.073-0.01-4.184-0.271-4.321-0.342L0.787,6.392C1.058,6.15,3.016,5.891,5.498,5.891   c2.018,0,4.633,0.22,4.942,0.419v1.962c0,0.221,0.18,0.4,0.4,0.4s0.4-0.18,0.4-0.4V6.31c0-0.181-0.073-0.357-0.202-0.485   C10.324,5.111,5.99,5.09,5.498,5.09c-1.065,0-4.594,0.054-5.275,0.734C0.094,5.954,0.02,6.13,0.02,6.311v5.515   c0,0.181,0.071,0.352,0.201,0.485c0.177,0.176,0.645,0.644,4.919,0.657h0.001c0.221,0,0.399-0.179,0.4-0.399   C5.542,12.348,5.363,12.168,5.142,12.167z"></path><path d="M5.071,13.136l-2.125,0.38c-0.218,0.039-0.362,0.246-0.323,0.464c0.034,0.193,0.203,0.33,0.394,0.33   c0.022,0,0.047-0.002,0.07-0.007l2.125-0.38c0.218-0.039,0.362-0.246,0.323-0.464C5.497,13.244,5.292,13.089,5.071,13.136z"></path><path d="M18.502,5.09c-0.492,0-4.826,0.021-5.542,0.734c-0.128,0.128-0.201,0.305-0.201,0.485v1.962c0,0.221,0.18,0.4,0.4,0.4   s0.4-0.18,0.4-0.4l-0.038-1.877c0.348-0.284,2.963-0.504,4.98-0.504c2.481,0,4.439,0.259,4.677,0.42l0.035,5.433   c-0.174,0.153-1.298,0.414-4.403,0.424c-0.222,0.001-0.399,0.181-0.399,0.401c0.001,0.221,0.18,0.399,0.4,0.399h0.001   c4.322-0.014,4.789-0.481,4.968-0.66c0.128-0.131,0.199-0.302,0.199-0.482V6.311c0-0.181-0.074-0.357-0.202-0.486   C23.096,5.144,19.568,5.09,18.502,5.09z"></path><path d="M21.053,13.516l-2.171-0.38c-0.223-0.045-0.426,0.107-0.463,0.324c-0.038,0.218,0.107,0.425,0.324,0.463l2.171,0.38   c0.023,0.005,0.047,0.007,0.069,0.007c0.191,0,0.36-0.137,0.394-0.331C21.416,13.761,21.27,13.554,21.053,13.516z"></path></g></g><g id="SvgjsG1157" featurekey="ewgXDI-0" transform="matrix(3.6337209417454694,0,0,3.6337209417454694,-2.180233084855232,109.70639652891063)" fill="#111111"><path d="M6.08 17.36 c0.56 0 0.96 -0.08 1.4 -0.2 l0 2.62 c-0.44 0.2 -1.16 0.34 -2.22 0.34 c-1.74 0 -3.2 -0.58 -3.2 -3.78 l0 -4.14 l-1.46 0 l0 -2.6 l1.46 0 l0 -2.44 l3.16 0 l0 2.44 l2.22 0 l0 2.6 l-2.22 0 l0 4.14 c0 0.46 0.12 1.02 0.86 1.02 z M12.32 5.859999999999999 l0 2.66 l-3.16 0 l0 -2.66 l3.16 0 z M12.32 9.6 l0 10.4 l-3.16 0 l0 -10.4 l3.16 0 z M19.42 17.36 c0.56 0 0.96 -0.08 1.4 -0.2 l0 2.62 c-0.44 0.2 -1.16 0.34 -2.22 0.34 c-1.74 0 -3.2 -0.58 -3.2 -3.78 l0 -4.14 l-1.46 0 l0 -2.6 l1.46 0 l0 -2.44 l3.16 0 l0 2.44 l2.22 0 l0 2.6 l-2.22 0 l0 4.14 c0 0.46 0.12 1.02 0.86 1.02 z M25.66 5.859999999999999 l0 14.14 l-3.16 0 l0 -14.14 l3.16 0 z M32.86 9.42 c2.36 0 5.66 1.78 5 6.48 l-7.26 0 c0.36 1.08 1.3 1.64 2.56 1.64 c1.28 0 1.68 -0.28 2.4 -0.58 l1.74 1.68 c-0.92 0.9 -2.16 1.56 -4.26 1.56 c-2.58 0 -5.66 -1.78 -5.66 -5.36 c0 -3.64 3.12 -5.42 5.48 -5.42 z M32.86 12.120000000000001 c-0.9 0 -1.82 0.52 -2.22 1.56 l4.42 0 c-0.32 -1.04 -1.3 -1.56 -2.2 -1.56 z M44.6 12.879999999999999 c-0.28 -0.72 -0.7 -0.96 -1.16 -0.96 c-0.42 0 -0.84 0.24 -0.84 0.64 c0 0.38 0.24 0.6 0.7 0.76 l1.32 0.46 c1.48 0.54 2.98 1.08 2.98 3.16 c0 2.1 -2.1 3.3 -4.26 3.3 c-1.94 0 -3.76 -1.14 -4.2 -2.96 l2.48 -0.78 c0.26 0.58 0.72 1.24 1.72 1.24 c0.68 0 1.12 -0.44 1.12 -0.84 c0 -0.2 -0.16 -0.46 -0.66 -0.66 l-1.22 -0.44 c-2.08 -0.76 -3.06 -1.82 -3.06 -3.3 c0 -1.94 1.8 -3.08 3.78 -3.08 c2.02 0 3.36 1.1 3.96 2.76 z M54.28 17.36 c0.56 0 0.96 -0.08 1.4 -0.2 l0 2.62 c-0.44 0.2 -1.16 0.34 -2.22 0.34 c-1.74 0 -3.2 -0.58 -3.2 -3.78 l0 -4.14 l-1.46 0 l0 -2.6 l1.46 0 l0 -2.44 l3.16 0 l0 2.44 l2.22 0 l0 2.6 l-2.22 0 l0 4.14 c0 0.46 0.12 1.02 0.86 1.02 z M62.52 9.42 c2.36 0 5.48 1.78 5.48 5.42 c0 3.66 -3.12 5.36 -5.48 5.36 s-5.48 -1.7 -5.48 -5.36 c0 -3.64 3.12 -5.42 5.48 -5.42 z M62.52 12.2 c-1.2 0 -2.42 0.92 -2.42 2.64 c0 1.66 1.22 2.58 2.42 2.58 s2.44 -0.92 2.44 -2.58 c0 -1.72 -1.24 -2.64 -2.44 -2.64 z M76.4 9.44 c0.28 0 0.56 0 0.82 0.06 l0 3.02 c-0.24 -0.06 -0.52 -0.06 -0.72 -0.06 c-1.92 0 -3.46 1.38 -3.62 3.3 l0 4.24 l-3.16 0 l0 -10.4 l3.16 0 l0 2.54 c0.48 -1.56 1.68 -2.7 3.52 -2.7 z M92.74000000000001 9.44 c2.22 0 4.18 1.44 4.18 4.96 l0 5.6 l-3.16 0 l0 -5.5 c0 -1.32 -0.56 -2.32 -2.02 -2.32 c-1.22 0 -2.04 1.08 -2.28 2.04 l0 5.78 l-3.16 0 l0 -5.5 c0 -1.32 -0.82 -2.32 -2.02 -2.32 c-1.3 0 -2.08 0.88 -2.28 2.04 l0 5.78 l-3.16 0 l0 -10.4 l3.16 0 l0 1.9 c0.04 -0.48 1.06 -2.06 3.1 -2.06 c1.5 0 2.94 0.8 3.8 2.26 c0.24 -0.56 1.44 -2.26 3.84 -2.26 z"></path></g></svg>