<svg viewBox="0 0 349.99999999999994 146.1205663742452" height="146.1205663742452" width="349.99999999999994" style="width: 350px; height: 146.121px; position: absolute; top: 50%; left: 50%; z-index: 0; cursor: pointer; overflow: visible; transform: translate(-50%, -50%) scale(0.548571);" xmlns="http://www.w3.org/2000/svg"><defs id="SvgjsDefs1168"><linearGradient id="SvgjsLinearGradient1173"><stop id="SvgjsStop1174" stop-color="#51504f" offset="0"></stop><stop id="SvgjsStop1175" stop-color="#939598" offset="0.5"></stop><stop id="SvgjsStop1176" stop-color="#51504f" offset="1"></stop></linearGradient><linearGradient id="SvgjsLinearGradient1177"><stop id="SvgjsStop1178" stop-color="#51504f" offset="0"></stop><stop id="SvgjsStop1179" stop-color="#939598" offset="0.5"></stop><stop id="SvgjsStop1180" stop-color="#51504f" offset="1"></stop></linearGradient></defs><g id="SvgjsG1169" featurekey="symbolFeature-0" transform="matrix(5.843316218754017,0,0,5.843316218754017,104.88313366735306,-29.742480445077245)" fill="url(#SvgjsLinearGradient1173)"><g xmlns="http://www.w3.org/2000/svg"><path d="M11.842,8.863c-0.853,0-5.144,0.04-5.921,0.814C5.787,9.812,5.709,9.999,5.709,10.19v5.966   c0,0.189,0.073,0.369,0.212,0.512c0.457,0.456,2.375,0.697,5.671,0.722v0.345l-2.609,0.38c-0.219,0.031-0.37,0.234-0.338,0.453   c0.031,0.219,0.237,0.37,0.453,0.338l2.895-0.421l2.895,0.421c0.02,0.003,0.039,0.005,0.059,0.005c0.195,0,0.366-0.144,0.395-0.343   c0.032-0.219-0.119-0.422-0.338-0.453l-2.609-0.38v-0.342c4.952-0.017,5.475-0.531,5.671-0.726   c0.137-0.137,0.212-0.318,0.212-0.512v-5.966c0-0.193-0.075-0.375-0.212-0.512C17.258,8.873,12.063,8.863,11.842,8.863z    M12.142,16.593c-3.341,0-5.375-0.248-5.632-0.438l-0.023-5.912c0.287-0.28,2.508-0.58,5.355-0.58c2.313,0,5.288,0.254,5.633,0.525   l0.022,5.911C17.307,16.284,15.963,16.593,12.142,16.593z"></path><path d="M5.142,12.167c-3.073-0.01-4.184-0.271-4.321-0.342L0.787,6.392C1.058,6.15,3.016,5.891,5.498,5.891   c2.018,0,4.633,0.22,4.942,0.419v1.962c0,0.221,0.18,0.4,0.4,0.4s0.4-0.18,0.4-0.4V6.31c0-0.181-0.073-0.357-0.202-0.485   C10.324,5.111,5.99,5.09,5.498,5.09c-1.065,0-4.594,0.054-5.275,0.734C0.094,5.954,0.02,6.13,0.02,6.311v5.515   c0,0.181,0.071,0.352,0.201,0.485c0.177,0.176,0.645,0.644,4.919,0.657h0.001c0.221,0,0.399-0.179,0.4-0.399   C5.542,12.348,5.363,12.168,5.142,12.167z"></path><path d="M5.071,13.136l-2.125,0.38c-0.218,0.039-0.362,0.246-0.323,0.464c0.034,0.193,0.203,0.33,0.394,0.33   c0.022,0,0.047-0.002,0.07-0.007l2.125-0.38c0.218-0.039,0.362-0.246,0.323-0.464C5.497,13.244,5.292,13.089,5.071,13.136z"></path><path d="M18.502,5.09c-0.492,0-4.826,0.021-5.542,0.734c-0.128,0.128-0.201,0.305-0.201,0.485v1.962c0,0.221,0.18,0.4,0.4,0.4   s0.4-0.18,0.4-0.4l-0.038-1.877c0.348-0.284,2.963-0.504,4.98-0.504c2.481,0,4.439,0.259,4.677,0.42l0.035,5.433   c-0.174,0.153-1.298,0.414-4.403,0.424c-0.222,0.001-0.399,0.181-0.399,0.401c0.001,0.221,0.18,0.399,0.4,0.399h0.001   c4.322-0.014,4.789-0.481,4.968-0.66c0.128-0.131,0.199-0.302,0.199-0.482V6.311c0-0.181-0.074-0.357-0.202-0.486   C23.096,5.144,19.568,5.09,18.502,5.09z"></path><path d="M21.053,13.516l-2.171-0.38c-0.223-0.045-0.426,0.107-0.463,0.324c-0.038,0.218,0.107,0.425,0.324,0.463l2.171,0.38   c0.023,0.005,0.047,0.007,0.069,0.007c0.191,0,0.36-0.137,0.394-0.331C21.416,13.761,21.27,13.554,21.053,13.516z"></path></g></g><g id="SvgjsG1170" featurekey="nameFeature-0" transform="matrix(1.6612871977330543,0,0,1.6612871977330543,-3.0567688953619956,79.00456105090669)" fill="url(#SvgjsLinearGradient1177)"><path d="M7.88 18.6 l-5.68 0 c-0.2 0 -0.36 -0.16 -0.36 -0.36 l0 -4.28 c0 -0.2 0.16 -0.36 0.36 -0.36 l16.68 0 c0.2 0 0.36 0.16 0.36 0.36 l0 4.28 c0 0.2 -0.16 0.36 -0.36 0.36 l-5.68 0 l0 21.04 c0 0.2 -0.16 0.36 -0.36 0.36 l-4.6 0 c-0.2 0 -0.36 -0.16 -0.36 -0.36 l0 -21.04 z M16.44 15.8 l-12.08 0 c-0.28 0 -0.28 0.52 0 0.52 l5.92 0 l0 21.2 c0 0.28 0.52 0.28 0.52 0 l0 -21.2 l5.64 0 c0.4 0 0.36 -0.52 0 -0.52 z M25.160000000000004 40 c-0.2 0 -0.32 -0.16 -0.32 -0.36 l0 -25.68 c0 -0.2 0.12 -0.36 0.32 -0.36 l4.56 0 c0.2 0 0.36 0.16 0.36 0.36 l0 25.68 c0 0.2 -0.16 0.36 -0.36 0.36 l-4.56 0 z M27.240000000000002 16 l0 21.56 c0 0.36 0.44 0.36 0.44 0 l0 -21.56 c0 -0.28 -0.44 -0.28 -0.44 0 z M41.56 18.6 l-5.68 0 c-0.2 0 -0.36 -0.16 -0.36 -0.36 l0 -4.28 c0 -0.2 0.16 -0.36 0.36 -0.36 l16.68 0 c0.2 0 0.36 0.16 0.36 0.36 l0 4.28 c0 0.2 -0.16 0.36 -0.36 0.36 l-5.68 0 l0 21.04 c0 0.2 -0.16 0.36 -0.36 0.36 l-4.6 0 c-0.2 0 -0.36 -0.16 -0.36 -0.36 l0 -21.04 z M50.120000000000005 15.8 l-12.08 0 c-0.28 0 -0.28 0.52 0 0.52 l5.92 0 l0 21.2 c0 0.28 0.52 0.28 0.52 0 l0 -21.2 l5.64 0 c0.4 0 0.36 -0.52 0 -0.52 z M63.400000000000006 13.600000000000001 c0.2 0 0.36 0.16 0.36 0.36 l0 21 l8.64 0 c0.2 0 0.36 0.16 0.36 0.36 l0 4.32 c0 0.2 -0.16 0.36 -0.36 0.36 l-13.56 0 c-0.2 0 -0.32 -0.16 -0.32 -0.36 l0 -25.68 c0 -0.2 0.12 -0.36 0.32 -0.36 l4.56 0 z M60.92 16.04 l0 21.52 c0 0.08 0.08 0.2 0.24 0.2 l9.24 0 c0.32 0 0.32 -0.52 0 -0.52 l-9.04 0 l0 -21.2 c0 -0.28 -0.44 -0.32 -0.44 0 z M78.68 40 c-0.2 0 -0.32 -0.16 -0.32 -0.36 l0 -25.68 c0 -0.2 0.12 -0.36 0.32 -0.36 l13.6 0 c0.2 0 0.36 0.16 0.36 0.36 l0 4.28 c0 0.2 -0.16 0.36 -0.36 0.36 l-8.64 0 l0 5.44 l6.72 0 c0.2 0 0.32 0.16 0.32 0.36 l0 4.36 c0 0.2 -0.12 0.36 -0.32 0.36 l-6.72 0 l0 5.88 l8.64 0 c0.2 0 0.36 0.16 0.36 0.36 l0 4.28 c0 0.2 -0.16 0.36 -0.36 0.36 l-13.6 0 z M80.68 16.12 l0 21.28 c0 0.24 0.16 0.32 0.32 0.32 l9.2 0 c0.36 0 0.28 -0.48 0 -0.48 l-9 0 l0 -10.44 l7.36 0 c0.24 0 0.24 -0.56 0 -0.56 l-7.36 0 l0 -9.92 l9 0 c0.28 0 0.36 -0.52 0 -0.52 l-9.2 0 c-0.16 0 -0.32 0.12 -0.32 0.32 z M108.40000000000002 23.8 c3.04 1.44 7 3.72 7 7.84 c0 1.2 -0.2 3.52 -1.52 5.48 c-1.48 2.2 -3.8 3.28 -7 3.28 c-3.4 0 -7.36 -1.64 -8.6 -5.36 c-0.04 -0.12 0 -0.24 0.12 -0.32 l3.68 -3.16 c0.16 -0.12 0.4 -0.12 0.52 0.08 c0.08 0.2 0.24 0.52 0.44 0.92 c0.6 1.24 2.04 2.48 3.64 2.48 c1.24 0 2.92 -0.68 2.92 -2.6 c0 -1.84 -2.52 -2.88 -4.08 -3.48 c-1.8 -0.72 -3.64 -1.64 -5.2 -3 c-1.64 -1.52 -2.44 -3.2 -2.44 -5.2 c0 -5 4.6 -7.52 8.96 -7.52 c3.44 0 6 1.8 7.68 5.36 c0.08 0.16 0 0.36 -0.12 0.44 l-3.56 2.48 c-0.16 0.08 -0.24 0.08 -0.4 -0.12 c-1.36 -1.96 -2.56 -2.88 -4.16 -2.88 c-0.84 0 -2.8 0.32 -2.8 1.8 c0 1.8 3.32 2.72 4.92 3.48 z M101.12000000000002 34.84 c1 2 3.76 3.16 6 3.16 c2.92 0 5.28 -2 5.6 -5.04 c0.4 -3.72 -2.52 -5.32 -5.4 -6.76 l-1.28 -0.56 c-2.96 -1.32 -5.12 -2.32 -5.12 -5.08 c0 -3.04 2.8 -4.44 5.56 -4.44 c2.52 0 3.84 1.48 4.52 2.4 c0.24 0.32 0.64 0.04 0.4 -0.28 c-0.68 -0.84 -2.12 -2.6 -4.92 -2.6 c-3.16 0 -6.04 1.56 -6.04 4.92 c0 3 2.4 4.16 5.44 5.56 l1.24 0.6 c3.96 1.88 5.4 3.64 5.08 6.2 c-0.6 4.08 -3.72 4.6 -5.08 4.6 c-3 0 -5 -1.8 -5.6 -2.92 c-0.2 -0.2 -0.48 0 -0.4 0.24 z M125.52000000000001 18.6 l-5.68 0 c-0.2 0 -0.36 -0.16 -0.36 -0.36 l0 -4.28 c0 -0.2 0.16 -0.36 0.36 -0.36 l16.68 0 c0.2 0 0.36 0.16 0.36 0.36 l0 4.28 c0 0.2 -0.16 0.36 -0.36 0.36 l-5.68 0 l0 21.04 c0 0.2 -0.16 0.36 -0.36 0.36 l-4.6 0 c-0.2 0 -0.36 -0.16 -0.36 -0.36 l0 -21.04 z M134.08 15.8 l-12.08 0 c-0.28 0 -0.28 0.52 0 0.52 l5.92 0 l0 21.2 c0 0.28 0.52 0.28 0.52 0 l0 -21.2 l5.64 0 c0.4 0 0.36 -0.52 0 -0.52 z M151.16000000000003 13.239999999999998 c3.44 0 5.84 0.76 7.36 2.4 c1.2 1.32 1.76 3.2 1.76 5.88 l0 10.52 c0 2.76 -0.56 4.68 -1.76 5.96 c-1.56 1.6 -3.92 2.4 -7.36 2.4 c-3.56 0 -5.88 -0.8 -7.4 -2.4 c-1.16 -1.28 -1.8 -3.2 -1.8 -5.96 l0 -10.52 c0 -2.68 0.64 -4.56 1.8 -5.92 c1.56 -1.6 3.92 -2.36 7.4 -2.36 z M154.96000000000004 30.84 l0 -8 c0 -3.52 -1.88 -4.24 -3.6 -4.24 l-0.48 0 c-2.56 0 -3.56 1.64 -3.56 4.24 l0 8 c0 3.52 1.88 4.28 3.56 4.28 l0.48 0 c2.56 0 3.56 -1.72 3.6 -4.28 z M144.48000000000002 21.8 l0 9.92 c0 1.88 0.48 3.44 1.6 4.6 c1.04 1.04 2.64 1.6 4.6 1.6 l1.04 0 c3.76 0 6.2 -2.4 6.2 -6.2 l0 -9.92 c0 -4.08 -2.16 -6.28 -6.2 -6.28 l-1.04 0 c-4.08 0 -6.2 2.2 -6.2 6.28 z M151.72000000000003 37.4 l-1.04 0 c-1.88 0 -3.28 -0.48 -4.28 -1.48 s-1.52 -2.4 -1.52 -4.2 l0 -9.92 c0 -3.8 2.04 -5.8 5.8 -5.8 l1.04 0 c3.8 0 5.68 1.96 5.68 5.8 l0 9.92 c0 1.68 -0.52 3.2 -1.6 4.24 c-1.04 0.88 -2.44 1.44 -4.08 1.44 z M182.28000000000003 29.560000000000002 c-0.56 1.16 -1.36 2.04 -2.48 2.56 l3.36 7.4 c0.12 0.24 -0.04 0.48 -0.28 0.48 l-4.92 0 c-0.16 0 -0.24 -0.08 -0.28 -0.2 l-3.12 -6.8 l-2.04 0 l0 6.64 c0 0.2 -0.16 0.36 -0.36 0.36 l-4.6 0 c-0.16 0 -0.28 -0.16 -0.28 -0.36 l0 -25.68 c0 -0.2 0.12 -0.36 0.28 -0.36 l8.32 0 c4.44 0 7.12 2.52 7.12 7.2 l0 5.04 c0 1.4 -0.24 2.72 -0.72 3.72 z M177.76000000000005 24.6 l0 -2.6 c0 -2.8 -1.04 -3.08 -4.08 -3.08 l-1.16 0 l0 8.84 l1.16 0 c2.52 0 4 -0.04 4.08 -3.16 z M170.20000000000005 37.56 l0 -6.84 l5.76 0 l3.36 6.92 c0.08 0.2 0.56 0.12 0.44 -0.24 l-3.36 -6.8 c3.12 -0.44 4.2 -2.08 4.2 -5.04 l0 -5 c0 -4.4 -4 -4.76 -5.24 -4.76 l-5.4 0 c-0.08 0 -0.24 0.12 -0.24 0.24 l0 21.52 c0 0.28 0.48 0.28 0.48 0 z M180.12000000000003 20.56 l0 5 c0 4.08 -2.6 4.64 -5.12 4.64 l-4.8 0 l0 -13.88 l5.16 0 c4.32 0 4.76 2.92 4.76 4.24 z M212.16000000000005 13.600000000000001 c0.2 0 0.36 0.16 0.36 0.36 l0 25.68 c0 0.2 -0.16 0.36 -0.36 0.36 l-4.36 0 c-0.12 0 -0.32 -0.16 -0.32 -0.36 l0 -14.8 l-4.4 14.92 c-0.08 0.16 -0.16 0.24 -0.32 0.24 l-3.16 0 c-0.12 0 -0.28 -0.08 -0.32 -0.24 l-4.12 -15.2 l0 15.08 c0 0.2 -0.16 0.36 -0.36 0.36 l-4.44 0 c-0.16 0 -0.28 -0.16 -0.28 -0.36 l0 -25.68 c0 -0.2 0.12 -0.36 0.28 -0.36 l5.6 0 c0.16 0 0.32 0.12 0.36 0.24 l4.84 16.2 l5.32 -16.2 c0 -0.12 0.12 -0.24 0.28 -0.24 l5.4 0 z M209.68000000000006 37.56 c0 0.28 0.52 0.36 0.52 0 l0 -21.56 c0 -0.08 -0.12 -0.2 -0.24 -0.2 l-1.88 0 c-0.16 0 -0.2 0.12 -0.28 0.2 l-6.64 19.8 l-6.6 -19.84 c0 -0.12 -0.08 -0.16 -0.2 -0.16 l-1.96 0 c-0.12 0 -0.24 0.12 -0.24 0.24 l0 21.52 c0 0.28 0.52 0.36 0.52 0 l0 -21.24 l1.48 0 l6.76 20.32 c0.16 0.28 0.28 0.2 0.48 0 l6.8 -20.32 l1.48 0 l0 21.24 z"></path></g></svg>